{"asset":{"version":"2.0","generator":"THREE.GLTFExporter r178"},"scenes":[{"nodes":[0]}],"scene":0,"nodes":[{"mesh":0}],"bufferViews":[{"buffer":0,"byteOffset":0,"byteLength":67212,"target":34962,"byteStride":12},{"buffer":0,"byteOffset":67212,"byteLength":11204,"target":34963}],"buffers":[{"byteLength":78416,"uri":"data:application/octet-stream;base64,"}],"accessors":[{"bufferView":0,"componentType":5126,"count":5601,"max":[12.46887493133545,6.638055801391602,13.08690071105957],"min":[-12.451125144958496,0.03805603086948395,-11.793098449707031],"type":"VEC3"},{"bufferView":1,"componentType":5123,"count":5601,"max":[5600],"min":[0],"type":"SCALAR"}],"materials":[{"pbrMetallicRoughness":{"metallicFactor":0,"roughnessFactor":1}}],"meshes":[{"primitives":[{"mode":4,"attributes":{"POSITION":0},"indices":1,"material":0}]}]}